<svg width="36" height="37" fill="none" xmlns="http://www.w3.org/2000/svg"><path d="M11.5 30.5c-1.3-.2-2.3-1.5-2.1-3l2-19.2c0-.4 0-.7.2-1h-1.2c-1.3 0-2.3 1.2-2.3 2.7v19.4c0 1.5 1 2.7 2.3 2.7h11.2c.2 0 .5 0 .8-.2l-11-1.4z" fill="#fff"/><path fill-rule="evenodd" clip-rule="evenodd" d="M24 31c1.2.2 2.4-1 2.6-2.4l1.9-19.2c.1-1.5-.8-2.9-2.1-3L15.4 5c-1.3-.2-2.5.8-2.7 2.3l-1.9 19.3c-.1 1.5.8 2.8 2 3L24 31zM19 12.2l-.5 4.6-4.6-.6c-.4 0-.7 2.3-.2 2.3l4.5.6-.6 4.6c0 .4 2.2.6 2.3.2l.6-4.5 4.5.5c.6 0 .8-2.2.3-2.3l-4.6-.5.6-4.6c0-.5-2.2-.8-2.3-.3z" fill="#fff"/></svg>