<svg width="1080" height="1080" viewBox="0 0 1080 1080" fill="none" xmlns="http://www.w3.org/2000/svg">
<path d="M1080 0H0V1080H1080V0Z" fill="#F8680C"/>
<path d="M235.904 987.863H282.186V777.493H235.904V987.863ZM414.419 777.493H325.061V987.863H371.343V902.714H414.419C449.881 902.714 477.129 876.467 477.129 841.005C477.129 805.943 449.881 777.493 414.419 777.493ZM407.006 864.446H371.343V818.165H407.006C421.832 818.165 433.051 827.581 433.051 841.406C433.051 855.43 421.832 864.446 407.006 864.446ZM627.594 818.165V777.493H500.971V987.863H547.253V903.114H615.973V862.443H547.253V818.165H627.594ZM752.013 990.668C793.686 990.668 829.95 967.227 847.782 932.766L807.711 912.13C797.693 932.165 776.857 945.389 752.013 945.389C716.551 945.389 689.703 918.141 689.703 882.678C689.703 847.216 716.551 819.968 752.013 819.968C776.857 819.968 797.693 833.191 807.711 853.226L847.782 832.59C829.95 798.129 793.686 774.688 752.013 774.688C692.508 774.688 644.023 823.174 644.023 882.678C644.023 942.383 692.508 990.668 752.013 990.668Z" fill="white"/>
<path d="M761.644 643.96C758.167 678.311 730.566 702.986 699.964 699.079L439.564 665.762C408.984 661.833 387.017 630.831 390.493 596.48L436.005 147.662C439.504 113.312 467.097 88.6445 497.707 92.5584L758.099 125.868C788.694 129.79 810.654 160.799 807.163 195.15L761.644 643.96Z" fill="white"/>
<path d="M406.403 687.836C375.823 683.922 353.848 652.905 357.324 618.554L402.843 169.744C403.62 161.976 405.735 154.4 409.095 147.354H381.894C351.103 147.354 326.156 175.377 326.156 209.954V661.645C326.156 696.229 351.103 724.252 381.894 724.252H643.983C650.513 724.252 656.75 722.918 662.587 720.602L406.403 687.836Z" fill="white"/>
</svg>
