<svg width="240" height="50" viewBox="0 0 240 50" fill="none" xmlns="http://www.w3.org/2000/svg">
<path d="M240 0H0V50H240V0Z" fill="#F8680C"/>
<path d="M42.2816 28.8503H44.5651V18.4708H42.2816V28.8503ZM50.862 21.7922C50.0712 21.7922 49.3792 22.1778 48.8948 22.7808V21.9306H46.6805V28.8503H48.8948V24.8369C48.8948 24.2141 49.4088 23.7495 50.0514 23.7495C50.6939 23.7495 51.1388 24.2141 51.1388 24.8369V28.8503H53.3333V24.4711C53.3333 22.9488 52.2261 21.7922 50.862 21.7922ZM59.4127 23.6408V21.9306H57.7618V19.2715H55.5673V21.9306H54.4108V23.6408H55.5673V26.379C55.5673 27.8519 56.8129 28.9887 58.2858 28.9887C58.7504 28.9887 59.215 28.8898 59.3929 28.7613V27.0512H58.5625C58.0979 27.0512 57.7618 26.6854 57.7618 26.122V23.6408H59.4127ZM67.8151 25.3707C67.8151 23.2157 66.3323 21.7725 64.0983 21.7725C61.8642 21.7725 60.2925 23.2256 60.2925 25.3905C60.2925 27.5553 61.8444 28.9887 64.1675 28.9887C66.0852 28.9887 67.3703 27.9705 67.7162 26.4679H65.581C65.3932 27.0215 64.8891 27.3477 64.1279 27.3477C63.1295 27.3477 62.6056 26.7447 62.5265 25.7562H67.8151V25.3707ZM64.1279 23.4727C64.8792 23.4727 65.3042 23.8187 65.5316 24.4217H62.6649C62.8824 23.8385 63.3569 23.4727 64.1279 23.4727ZM73.509 21.7922C72.6984 21.7922 72.0163 22.2074 71.5715 22.8796V21.9306H69.3572V28.8503H71.5715V25.5486C71.5715 24.4019 72.3524 23.7495 73.4398 23.7495C73.6968 23.7495 73.9241 23.7792 74.0823 23.8187V21.8614C73.9241 21.812 73.7166 21.7922 73.509 21.7922ZM83.6314 18.4708H79.2127V28.8503H81.4962V24.6491H83.6314C85.3712 24.6491 86.7255 23.3541 86.7255 21.6044C86.7255 19.8745 85.3712 18.4708 83.6314 18.4708ZM83.2657 22.761H81.4962V20.4775H83.2657C83.9873 20.4775 84.5409 20.9421 84.5409 21.6242C84.5409 22.3162 83.9873 22.761 83.2657 22.761ZM87.8129 28.8503H90.0271V16.9979H87.8129V28.8503ZM99.7838 27.0512C99.4873 27.0512 99.1808 26.9523 99.1808 26.379V21.9306H96.9863V22.5336C96.4624 22.069 95.81 21.7922 95.0093 21.7922C93.0916 21.7922 91.589 23.3838 91.589 25.3905C91.589 27.3972 93.0916 28.9887 95.0093 28.9887C96.0176 28.9887 96.8282 28.5438 97.3817 27.8123C97.8167 28.5241 98.5778 28.9887 99.507 28.9887C99.7344 28.9887 99.942 28.9195 100.1 28.8503V27.0512H99.7838ZM95.4442 27.0314C94.5249 27.0314 93.8033 26.3098 93.8033 25.3905C93.8033 24.4711 94.5249 23.7495 95.4442 23.7495C96.3438 23.7495 97.0852 24.4711 97.0852 25.3905C97.0852 26.3098 96.3438 27.0314 95.4442 27.0314ZM105.567 21.7922C104.766 21.7922 104.074 22.1778 103.59 22.7808V21.9306H101.375V28.8503H103.59V24.8369C103.59 24.2141 104.114 23.7495 104.746 23.7495C105.389 23.7495 105.843 24.2141 105.843 24.8369V28.8503H108.038V24.4711C108.038 22.9488 106.931 21.7922 105.567 21.7922ZM116.984 25.3707C116.984 23.2157 115.491 21.7725 113.257 21.7725C111.033 21.7725 109.452 23.2256 109.452 25.3905C109.452 27.5553 111.013 28.9887 113.327 28.9887C115.254 28.9887 116.529 27.9705 116.875 26.4679H114.75C114.552 27.0215 114.058 27.3477 113.297 27.3477C112.289 27.3477 111.775 26.7447 111.686 25.7562H116.984V25.3707ZM113.297 23.4727C114.038 23.4727 114.473 23.8187 114.701 24.4217H111.824C112.051 23.8385 112.516 23.4727 113.297 23.4727ZM122.688 23.6408V21.9306H121.047V19.2715H118.852V21.9306H117.686V23.6408H118.852V26.379C118.852 27.8519 120.098 28.9887 121.561 28.9887C122.035 28.9887 122.5 28.8898 122.668 28.7613V27.0512H121.838C121.373 27.0512 121.047 26.6854 121.047 26.122V23.6408H122.688ZM131.772 27.0512C131.476 27.0512 131.159 26.9523 131.159 26.379V21.9306H128.965V22.5336C128.451 22.069 127.789 21.7922 126.998 21.7922C125.08 21.7922 123.568 23.3838 123.568 25.3905C123.568 27.3972 125.08 28.9887 126.998 28.9887C127.996 28.9887 128.817 28.5438 129.37 27.8123C129.795 28.5241 130.556 28.9887 131.496 28.9887C131.713 28.9887 131.931 28.9195 132.079 28.8503V27.0512H131.772ZM127.423 27.0314C126.513 27.0314 125.782 26.3098 125.782 25.3905C125.782 24.4711 126.513 23.7495 127.423 23.7495C128.332 23.7495 129.074 24.4711 129.074 25.3905C129.074 26.3098 128.332 27.0314 127.423 27.0314ZM137.516 21.7922C136.705 21.7922 136.023 22.2074 135.578 22.8796V21.9306H133.364V28.8503H135.578V25.5486C135.578 24.4019 136.359 23.7495 137.446 23.7495C137.703 23.7495 137.931 23.7792 138.089 23.8187V21.8614C137.931 21.812 137.723 21.7922 137.516 21.7922ZM143.694 21.9306L141.994 26.5174L140.264 21.9306H137.96L140.857 29.0084L139.226 33.0021H141.549L145.977 21.9306H143.694ZM157.405 20.4775V18.4708H151.167V28.8503H153.451V24.6688H156.841V22.6621H153.451V20.4775H157.405ZM158.601 28.8503H160.815V16.9979H158.601V28.8503ZM170.572 27.0512C170.275 27.0512 169.969 26.9523 169.969 26.379V21.9306H167.774V22.5336C167.25 22.069 166.598 21.7922 165.797 21.7922C163.879 21.7922 162.377 23.3838 162.377 25.3905C162.377 27.3972 163.879 28.9887 165.797 28.9887C166.805 28.9887 167.616 28.5438 168.17 27.8123C168.605 28.5241 169.366 28.9887 170.295 28.9887C170.522 28.9887 170.73 28.9195 170.888 28.8503V27.0512H170.572ZM166.232 27.0314C165.313 27.0314 164.591 26.3098 164.591 25.3905C164.591 24.4711 165.313 23.7495 166.232 23.7495C167.132 23.7495 167.873 24.4711 167.873 25.3905C167.873 26.3098 167.132 27.0314 166.232 27.0314ZM174.397 28.9887C175.949 28.9887 176.908 28.0397 176.908 26.7447C176.908 25.3608 175.761 24.8072 174.773 24.4217C174.279 24.2141 174.032 24.1153 174.032 23.8484C174.032 23.6309 174.21 23.453 174.585 23.453C175.04 23.453 175.455 23.7001 175.663 23.9571L176.77 22.7116C176.246 22.1877 175.396 21.7922 174.427 21.7922C172.855 21.7922 171.857 22.8302 171.857 24.0065C171.857 25.3905 173.241 25.8551 174.032 26.1516C174.654 26.3988 174.862 26.5668 174.862 26.8139C174.862 27.0907 174.625 27.239 174.259 27.239C173.893 27.239 173.409 27.1006 173.102 26.5174L171.471 27.328C171.886 28.4054 173.172 28.9887 174.397 28.9887ZM182.404 21.7922C181.643 21.7922 180.951 22.1382 180.467 22.7116V16.9979H178.253V28.8503H180.467V24.9456C180.467 24.3327 180.971 23.7495 181.643 23.7495C182.266 23.7495 182.701 24.2339 182.701 24.8369V28.8503H184.915V24.4711C184.915 22.9488 183.808 21.7922 182.404 21.7922ZM195.898 28.9887C197.954 28.9887 199.743 27.8321 200.623 26.1319L198.646 25.1137C198.151 26.1022 197.123 26.7546 195.898 26.7546C194.148 26.7546 192.823 25.4102 192.823 23.6606C192.823 21.9109 194.148 20.5665 195.898 20.5665C197.123 20.5665 198.151 21.2189 198.646 22.2074L200.623 21.1892C199.743 19.489 197.954 18.3324 195.898 18.3324C192.962 18.3324 190.57 20.7246 190.57 23.6606C190.57 26.6063 192.962 28.9887 195.898 28.9887ZM209.806 27.0512C209.51 27.0512 209.203 26.9523 209.203 26.379V21.9306H207.009V22.5336C206.485 22.069 205.832 21.7922 205.032 21.7922C203.114 21.7922 201.611 23.3838 201.611 25.3905C201.611 27.3972 203.114 28.9887 205.032 28.9887C206.04 28.9887 206.85 28.5438 207.404 27.8123C207.839 28.5241 208.6 28.9887 209.529 28.9887C209.757 28.9887 209.964 28.9195 210.122 28.8503V27.0512H209.806ZM205.467 27.0314C204.547 27.0314 203.826 26.3098 203.826 25.3905C203.826 24.4711 204.547 23.7495 205.467 23.7495C206.366 23.7495 207.107 24.4711 207.107 25.3905C207.107 26.3098 206.366 27.0314 205.467 27.0314ZM215.549 21.7922C214.739 21.7922 214.067 22.2074 213.612 22.8796V21.9306H211.398V28.8503H213.612V25.5486C213.612 24.4019 214.393 23.7495 215.48 23.7495C215.737 23.7495 215.965 23.7792 216.123 23.8187V21.8614C215.965 21.812 215.757 21.7922 215.549 21.7922ZM222.024 16.9979V22.5336C221.5 22.069 220.848 21.7922 220.047 21.7922C218.129 21.7922 216.627 23.3838 216.627 25.3905C216.627 27.3972 218.129 28.9887 220.047 28.9887C220.848 28.9887 221.5 28.7119 222.024 28.2473V28.8701L224.219 28.8503V16.9979H222.024ZM220.482 27.0314C219.563 27.0314 218.841 26.3098 218.841 25.3905C218.841 24.4711 219.563 23.7495 220.482 23.7495C221.382 23.7495 222.123 24.4711 222.123 25.3905C222.123 26.3098 221.382 27.0314 220.482 27.0314ZM228.489 28.9887C230.051 28.9887 231 28.0397 231 26.7447C231 25.3608 229.853 24.8072 228.875 24.4217C228.371 24.2141 228.123 24.1153 228.123 23.8484C228.123 23.6309 228.301 23.453 228.677 23.453C229.132 23.453 229.547 23.7001 229.754 23.9571L230.862 22.7116C230.338 22.1877 229.497 21.7922 228.529 21.7922C226.947 21.7922 225.949 22.8302 225.949 24.0065C225.949 25.3905 227.333 25.8551 228.123 26.1516C228.746 26.3988 228.954 26.5668 228.954 26.8139C228.954 27.0907 228.717 27.239 228.351 27.239C227.985 27.239 227.501 27.1006 227.194 26.5174L225.563 27.328C225.978 28.4054 227.263 28.9887 228.489 28.9887Z" fill="white"/>
<path d="M27.539 33.9537C27.407 35.2583 26.3587 36.1954 25.1965 36.0471L15.307 34.7817C14.1456 34.6325 13.3113 33.4551 13.4433 32.1505L15.1718 15.1052C15.3047 13.8006 16.3526 12.8637 17.5151 13.0124L27.4044 14.2774C28.5664 14.4264 29.4004 15.6041 29.2678 16.9086L27.539 33.9537Z" fill="white"/>
<path d="M14.0476 35.62C12.8863 35.4714 12.0517 34.2934 12.1837 32.9888L13.9125 15.9437C13.9419 15.6487 14.0223 15.361 14.1499 15.0934H13.1168C11.9474 15.0934 11 16.1577 11 17.4708V34.6253C11 35.9388 11.9474 37.0031 13.1168 37.0031H23.0705C23.3186 37.0031 23.5554 36.9524 23.7771 36.8645L14.0476 35.62Z" fill="white"/>
</svg>
